<?xml version="1.0" encoding="UTF-8" standalone="no"?>
<!-- Created with Inkscape (http://www.inkscape.org/) -->

<svg
   xmlns:dc="http://purl.org/dc/elements/1.1/"
   xmlns:cc="http://creativecommons.org/ns#"
   xmlns:rdf="http://www.w3.org/1999/02/22-rdf-syntax-ns#"
   xmlns:svg="http://www.w3.org/2000/svg"
   xmlns="http://www.w3.org/2000/svg"
   xmlns:sodipodi="http://sodipodi.sourceforge.net/DTD/sodipodi-0.dtd"
   xmlns:inkscape="http://www.inkscape.org/namespaces/inkscape"
   width="21.166666mm"
   height="22.073376mm"
   viewBox="0 0 21.166666 22.073376"
   version="1.1"
   id="svg6893"
   inkscape:version="0.92.1 r15371">
  <defs
     id="defs6887">
    <clipPath
       clipPathUnits="userSpaceOnUse"
       id="clipPath4026">
      <path
         d="M 0,1272.001 H 1272 V 0 H 0 Z"
         id="path4024"
         inkscape:connector-curvature="0" />
    </clipPath>
    <clipPath
       clipPathUnits="userSpaceOnUse"
       id="clipPath4034">
      <path
         d="m 844,765.334 h 55 v -58.953 h -55 z"
         id="path4032"
         inkscape:connector-curvature="0" />
    </clipPath>
  </defs>
  <sodipodi:namedview
     id="base"
     pagecolor="#ffffff"
     bordercolor="#666666"
     borderopacity="1.0"
     inkscape:pageopacity="0.0"
     inkscape:pageshadow="2"
     inkscape:zoom="0.35"
     inkscape:cx="171.42858"
     inkscape:cy="-218.28653"
     inkscape:document-units="mm"
     inkscape:current-layer="layer1"
     showgrid="false"
     inkscape:window-width="1920"
     inkscape:window-height="1137"
     inkscape:window-x="1272"
     inkscape:window-y="-8"
     inkscape:window-maximized="1" />
  <metadata
     id="metadata6890">
    <rdf:RDF>
      <cc:Work
         rdf:about="">
        <dc:format>image/svg+xml</dc:format>
        <dc:type
           rdf:resource="http://purl.org/dc/dcmitype/StillImage" />
        <dc:title></dc:title>
      </cc:Work>
    </rdf:RDF>
  </metadata>
  <g
     inkscape:label="Layer 1"
     inkscape:groupmode="layer"
     id="layer1"
     transform="translate(-60.476189,-69.00498)">
    <g
       transform="matrix(0.35277777,0,0,-0.35277777,-235.50436,340.27387)"
       id="g4020">
      <g
         id="g4022"
         clip-path="url(#clipPath4026)">
        <g
           id="g4028">
          <g
             id="g4030" />
          <g
             id="g4042">
            <g
               clip-path="url(#clipPath4034)"
               id="g4040"
               style="opacity:0.19999701">
              <g
                 transform="translate(844,706.3809)"
                 id="g4038">
                <path
                   d="m 0,0 c 19,0.487 37,5.948 55,5.948 v 53.005 c -18,0 -36,-5.46 -55,-5.948 z"
                   style="fill:#333333;fill-opacity:1;fill-rule:nonzero;stroke:none"
                   id="path4036"
                   inkscape:connector-curvature="0" />
              </g>
            </g>
          </g>
        </g>
        <g
           id="g4044"
           transform="translate(897.5,768.4512)">
          <path
             d="M 0,0 C -19,0 -38.253,-5.986 -58,-5.986 V -60.03 c 19.747,0 39,5.986 58,5.986 z"
             style="fill:#ffffff;fill-opacity:1;fill-rule:nonzero;stroke:none"
             id="path4046"
             inkscape:connector-curvature="0" />
        </g>
        <g
           id="g4048"
           transform="translate(897.5,768.4512)">
          <path
             d="M 0,0 C -19,0 -38.253,-5.986 -58,-5.986 V -60.03 c 19.747,0 39,5.986 58,5.986 z"
             style="fill:none;stroke:#000000;stroke-width:1;stroke-linecap:butt;stroke-linejoin:miter;stroke-miterlimit:10;stroke-dasharray:none;stroke-opacity:1"
             id="path4050"
             inkscape:connector-curvature="0" />
        </g>
        <g
           id="g4052"
           transform="translate(849.5137,720.1221)">
          <path
             d="m 0,0 c -0.181,-0.451 -0.343,-0.91 -0.554,-1.348 -0.08,-0.167 -0.253,-0.345 -0.421,-0.408 -0.287,-0.109 -0.483,0.033 -0.589,0.333 -0.159,0.447 -0.357,0.879 -0.539,1.318 -0.053,-0.012 -0.108,-0.024 -0.162,-0.036 -0.014,-0.165 -0.042,-0.329 -0.043,-0.494 -0.005,-0.906 -0.012,-1.811 0.003,-2.717 0.007,-0.339 -0.108,-0.481 -0.457,-0.461 -0.31,0.017 -0.626,0.006 -0.937,-0.016 -0.31,-0.024 -0.4,0.117 -0.4,0.403 0.005,2.684 0.006,5.367 0,8.051 -10e-4,0.297 0.114,0.397 0.408,0.415 1.315,0.083 1.315,0.1 1.695,-1.164 0.238,-0.795 0.475,-1.59 0.717,-2.382 C -1.235,1.349 -1.174,1.21 -1,1.073 c 0.054,0.145 0.114,0.287 0.159,0.435 0.316,1.053 0.646,2.104 0.932,3.168 0.1,0.371 0.257,0.519 0.643,0.543 1.254,0.08 1.254,0.1 1.254,-1.153 0,-2.321 0.001,-4.642 0,-6.963 0,-0.66 0,-0.661 -0.634,-0.709 -1.148,-0.082 -1.148,-0.077 -1.148,1.094 0,0.676 0.002,1.351 -0.002,2.026 0,0.152 -0.021,0.302 -0.033,0.455 C 0.115,-0.021 0.058,-0.011 0,0"
             style="fill:#999999;fill-opacity:1;fill-rule:evenodd;stroke:none"
             id="path4054"
             inkscape:connector-curvature="0" />
        </g>
        <g
           id="g4056"
           transform="translate(860.3975,721.3945)">
          <path
             d="m 0,0 v -2.694 c 0,-1.088 0,-1.091 -1.093,-1.248 -0.689,-0.097 -0.689,-0.096 -0.689,0.597 -10e-4,2.535 0.009,5.072 -0.009,7.604 -0.003,0.421 0.093,0.597 0.543,0.646 0.988,0.11 0.777,0.152 1.095,-0.575 C 0.21,3.503 0.554,2.665 0.91,1.836 0.974,1.687 1.063,1.553 1.142,1.411 c 0.046,0.015 0.093,0.028 0.14,0.042 0.016,0.166 0.045,0.332 0.046,0.495 0.004,0.94 0.014,1.879 -0.005,2.815 -0.007,0.369 0.088,0.538 0.496,0.601 1.279,0.2 1.279,0.22 1.279,-1.058 0,-2.355 -0.01,-4.71 0.009,-7.062 C 3.11,-3.186 2.996,-3.351 2.554,-3.398 1.644,-3.496 1.811,-3.641 1.466,-2.836 1.111,-2.006 0.759,-1.175 0.4,-0.345 0.337,-0.198 0.246,-0.065 0.167,0.074 0.111,0.05 0.056,0.025 0,0"
             style="fill:#999999;fill-opacity:1;fill-rule:evenodd;stroke:none"
             id="path4058"
             inkscape:connector-curvature="0" />
        </g>
        <g
           id="g4060"
           transform="translate(855.5889,722.29)">
          <path
             d="M 0,0 C 0,0.542 -0.018,1.083 0.006,1.627 0.022,1.997 -0.18,2.018 -0.455,1.95 -0.71,1.889 -1.092,2.043 -1.088,1.523 c 0.008,-1.084 0.005,-2.168 0.001,-3.252 -0.002,-0.514 0.381,-0.283 0.638,-0.287 0.289,-0.006 0.47,0.086 0.455,0.44 C -0.016,-1.055 0,-0.525 0,0 m 1.785,-1.239 c 0,-1.118 -0.01,-2.238 0.006,-3.353 0.006,-0.368 -0.082,-0.533 -0.492,-0.581 -1.29,-0.151 -1.306,-0.165 -1.289,1.132 0.006,0.422 -0.1,0.564 -0.546,0.511 -0.431,-0.052 -0.567,-0.188 -0.561,-0.625 0.018,-1.315 0,-1.313 -1.318,-1.431 -0.338,-0.029 -0.463,0.057 -0.461,0.404 0.012,2.253 -0.008,4.504 0.014,6.759 0.01,1.17 0.545,1.699 1.723,1.833 0.46,0.053 0.921,0.113 1.381,0.153 C 1.228,3.648 1.741,3.24 1.768,2.26 1.8,1.098 1.775,-0.074 1.775,-1.24 c 0.003,0 0.007,0 0.01,10e-4"
             style="fill:#999999;fill-opacity:1;fill-rule:evenodd;stroke:none"
             id="path4062"
             inkscape:connector-curvature="0" />
        </g>
        <g
           id="g4064"
           transform="translate(891.2881,729.1143)">
          <path
             d="m 0,0 c -0.264,-0.008 -0.444,-0.034 -0.619,-0.018 -0.464,0.046 -0.627,-0.128 -0.616,-0.615 0.029,-1.556 0.031,-3.117 -10e-4,-4.677 -0.01,-0.493 0.186,-0.567 0.608,-0.537 0.378,0.027 0.657,0.022 0.64,0.554 C -0.025,-4.13 0,-2.964 0,-1.798 Z m -3.007,-3.065 c 0,0.905 -0.009,1.81 0.002,2.716 0.014,1.228 0.527,1.77 1.756,1.835 0.461,0.024 0.922,0.044 1.383,0.05 1.096,0.012 1.6,-0.453 1.638,-1.568 0.039,-1.168 0.014,-2.339 0.015,-3.508 0,-0.708 0.019,-1.417 -0.009,-2.124 -0.046,-1.165 -0.545,-1.626 -1.702,-1.66 -0.477,-0.015 -0.955,-0.033 -1.432,-0.054 -1.082,-0.046 -1.596,0.413 -1.649,1.497 -10e-4,0.032 -0.002,0.066 -0.002,0.098 z"
             style="fill:#999999;fill-opacity:1;fill-rule:evenodd;stroke:none"
             id="path4066"
             inkscape:connector-curvature="0" />
        </g>
        <g
           id="g4068"
           transform="translate(879.6348,722.2393)">
          <path
             d="M 0,0 C 0.261,0.037 0.556,0.048 0.84,0.13 0.944,0.16 1.093,0.364 1.101,0.48 1.131,0.943 1.144,1.411 1.094,1.86 1.078,2.003 0.864,2.176 0.708,2.189 0.409,2.216 0.087,2.136 -0.226,2.104 -1.15,2.011 -1.781,2.488 -1.833,3.409 c -0.044,0.766 -0.04,1.543 -0.001,2.32 0.041,0.805 0.521,1.359 1.319,1.523 0.672,0.137 1.351,0.23 2.023,0.274 0.79,0.05 1.211,-0.347 1.31,-1.124 C 2.822,6.37 2.826,6.337 2.83,6.305 2.966,4.952 2.735,4.696 1.365,4.68 1.256,4.678 1.145,4.828 1.075,4.936 1.031,5.004 1.064,5.127 1.063,5.226 1.06,5.966 0.864,6.098 0.119,5.814 0.02,5.776 -0.107,5.594 -0.113,5.488 -0.137,5.008 -0.153,4.525 -0.104,4.06 -0.088,3.921 0.135,3.757 0.29,3.746 0.625,3.723 0.979,3.8 1.323,3.82 2.149,3.869 2.732,3.438 2.795,2.616 2.858,1.79 2.855,0.944 2.8,0.104 2.748,-0.677 2.226,-1.187 1.458,-1.311 0.817,-1.414 0.174,-1.503 -0.468,-1.572 c -0.762,-0.084 -1.269,0.297 -1.358,1.041 -0.049,0.399 -0.042,0.817 -0.016,1.23 0.007,0.111 0.178,0.237 0.279,0.35 0.018,0.02 0.063,0.018 0.096,0.025 0.426,0.073 0.977,0.327 1.24,0.163 C 0.009,1.089 -0.071,0.483 0,0"
             style="fill:#999999;fill-opacity:1;fill-rule:evenodd;stroke:none"
             id="path4070"
             inkscape:connector-curvature="0" />
        </g>
        <g
           id="g4072"
           transform="translate(876.9531,721.8408)">
          <path
             d="m 0,0 c 0.043,-0.096 0.055,-0.108 0.056,-0.123 0.085,-1.366 0.085,-1.363 -1.285,-1.579 -0.84,-0.134 -1.68,-0.26 -2.519,-0.415 -0.317,-0.06 -0.439,0.019 -0.438,0.347 0.008,2.683 0.008,5.367 0.001,8.048 -0.001,0.306 0.128,0.423 0.415,0.468 1.152,0.184 2.304,0.371 3.457,0.559 0.296,0.048 0.405,-0.04 0.386,-0.35 -0.08,-1.344 0.073,-1.102 -1.121,-1.3 -1.35,-0.224 -1.351,-0.219 -1.349,-1.589 0,-0.703 0,-0.702 0.7,-0.589 0.115,0.018 0.232,0.025 0.345,0.056 C -1.013,3.627 -0.85,3.529 -0.92,3.16 -0.93,3.111 -0.927,3.061 -0.93,3.011 -0.974,1.887 -0.925,2.1 -1.887,1.95 -2.262,1.891 -2.434,1.774 -2.404,1.371 -2.374,0.95 -2.379,0.519 -2.403,0.088 -2.426,-0.292 -2.269,-0.377 -1.911,-0.307 -1.273,-0.184 -0.636,-0.098 0,0"
             style="fill:#999999;fill-opacity:1;fill-rule:evenodd;stroke:none"
             id="path4074"
             inkscape:connector-curvature="0" />
        </g>
        <g
           id="g4076"
           transform="translate(871.0703,724.6221)">
          <path
             d="M 0,0 C 0,-0.224 0.004,-0.369 -0.001,-0.514 -0.034,-1.493 -0.035,-1.507 -1,-1.668 c -0.359,-0.061 -0.493,-0.186 -0.484,-0.559 0.023,-0.933 -0.002,-1.877 0.012,-2.811 0.006,-0.319 -0.061,-0.481 -0.43,-0.549 -1.355,-0.251 -1.355,-0.264 -1.355,1.089 0,2.32 0.015,4.644 -0.012,6.96 -0.004,0.491 0.158,0.636 0.618,0.701 1.036,0.148 2.073,0.335 3.11,0.526 C 0.82,3.757 0.951,3.674 0.922,3.286 0.828,2.081 1.033,2.255 -0.168,2.046 -1.477,1.818 -1.479,1.821 -1.476,0.566 -1.473,-0.301 -1.6,-0.272 -0.653,-0.111 -0.458,-0.078 -0.265,-0.045 0,0"
             style="fill:#999999;fill-opacity:1;fill-rule:evenodd;stroke:none"
             id="path4078"
             inkscape:connector-curvature="0" />
        </g>
        <g
           id="g4080"
           transform="translate(884.4287,725)">
          <path
             d="m 0,0 c 0,1.053 -0.012,2.103 0.007,3.157 0.006,0.347 -0.064,0.493 -0.455,0.446 -0.9,-0.11 -0.875,-0.089 -0.866,0.816 0.002,0.462 0.14,0.65 0.622,0.691 C 0.441,5.203 1.576,5.324 2.711,5.426 3.051,5.456 3.207,5.36 3.146,5.004 3.132,4.923 3.138,4.839 3.133,4.757 3.085,3.928 3.084,3.909 2.273,3.862 1.871,3.838 1.773,3.687 1.776,3.307 1.792,1.221 1.774,-0.869 1.792,-2.955 1.795,-3.366 1.715,-3.541 1.255,-3.574 0.001,-3.667 0,-3.695 0,-2.417 Z"
             style="fill:#999999;fill-opacity:1;fill-rule:evenodd;stroke:none"
             id="path4082"
             inkscape:connector-curvature="0" />
        </g>
        <g
           id="g4084"
           transform="translate(866.54,723.0254)">
          <path
             d="m 0,0 c 0,-1.298 -0.013,-2.599 0.007,-3.894 0.006,-0.384 -0.071,-0.562 -0.509,-0.63 -1.28,-0.197 -1.28,-0.214 -1.28,1.089 0,2.317 0.011,4.637 -0.01,6.951 -0.004,0.456 0.1,0.654 0.595,0.725 C -0.001,4.415 0,4.439 0,3.255 Z"
             style="fill:#999999;fill-opacity:1;fill-rule:evenodd;stroke:none"
             id="path4086"
             inkscape:connector-curvature="0" />
        </g>
        <g
           id="g4088"
           transform="translate(893.0732,717.8721)">
          <path
             d="m 0,0 c -15.889,-0.093 -31.777,-5.435 -47.667,-5.527 -0.229,-10e-4 -0.417,0.115 -0.417,0.345 0,0.231 0.188,0.346 0.417,0.348 C -31.777,-4.741 -15.889,0.6 0,0.692 0.231,0.694 0.418,0.577 0.418,0.348 0.418,0.117 0.231,0.001 0,0"
             style="fill:#999999;fill-opacity:1;fill-rule:nonzero;stroke:none"
             id="path4090"
             inkscape:connector-curvature="0" />
        </g>
        <g
           id="g4092"
           transform="translate(893.0732,719.2578)">
          <path
             d="m 0,0 c -15.889,-0.093 -31.777,-5.435 -47.667,-5.527 -0.099,0 -0.179,0.074 -0.179,0.173 0,0.098 0.08,0.172 0.179,0.173 15.89,0.093 31.778,5.434 47.667,5.528 0.099,0 0.179,-0.075 0.179,-0.173 C 0.179,0.075 0.099,0.001 0,0"
             style="fill:#999999;fill-opacity:1;fill-rule:nonzero;stroke:none"
             id="path4094"
             inkscape:connector-curvature="0" />
        </g>
        <g
           id="g4096"
           transform="translate(893.0732,763.2549)">
          <path
             d="m 0,0 c -15.889,-0.092 -31.777,-5.434 -47.667,-5.527 -0.229,0 -0.417,0.115 -0.417,0.345 0,0.231 0.188,0.347 0.417,0.348 C -31.777,-4.741 -15.889,0.601 0,0.693 0.231,0.694 0.418,0.578 0.418,0.349 0.418,0.117 0.231,0.001 0,0"
             style="fill:#999999;fill-opacity:1;fill-rule:nonzero;stroke:none"
             id="path4098"
             inkscape:connector-curvature="0" />
        </g>
        <g
           id="g4100"
           transform="translate(893.0732,762.2158)">
          <path
             d="m 0,0 c -15.889,-0.093 -31.777,-5.435 -47.667,-5.527 -0.099,0 -0.179,0.074 -0.179,0.173 0,0.098 0.08,0.173 0.179,0.174 C -31.777,-5.088 -15.889,0.254 0,0.346 0.099,0.347 0.179,0.272 0.179,0.174 0.179,0.075 0.099,0.001 0,0"
             style="fill:#999999;fill-opacity:1;fill-rule:nonzero;stroke:none"
             id="path4102"
             inkscape:connector-curvature="0" />
        </g>
        <g
           id="g4104"
           transform="translate(847.4287,746.3535)">
          <path
             d="m 0,0 c -1.494,-0.012 -2.416,1.012 -2.416,2.726 v 2.342 c 0,1.718 0.848,2.485 2.213,2.525 C 0.608,7.617 1.421,7.654 2.232,7.702 3.615,7.787 4.464,7.09 4.464,5.373 V 4.081 C 4.464,3.915 4.354,3.795 4.169,3.762 3.499,3.671 2.828,3.588 2.158,3.511 1.992,3.501 1.863,3.605 1.863,3.771 v 1.457 c 0,0.129 -0.111,0.234 -0.24,0.227 C 1.224,5.435 0.823,5.416 0.424,5.401 0.258,5.396 0.129,5.298 0.129,5.15 V 2.753 c 0,-0.259 0.129,-0.458 0.479,-0.462 0.48,0.007 0.96,0.018 1.44,0.033 1.513,0.051 2.416,-0.859 2.416,-2.578 V -2.56 c 0,-1.713 -0.849,-2.566 -2.214,-2.649 -0.812,-0.048 -1.623,-0.085 -2.435,-0.11 -1.383,-0.04 -2.231,0.741 -2.231,2.455 v 1.292 c 0,0.166 0.128,0.276 0.294,0.296 0.671,0.04 1.341,0.089 2.012,0.146 0.183,0.006 0.295,-0.099 0.295,-0.266 v -1.458 c 0,-0.128 0.091,-0.237 0.239,-0.231 0.406,0.016 0.811,0.034 1.218,0.056 0.147,0.008 0.276,0.106 0.276,0.236 v 2.38 c 0,0.258 -0.11,0.435 -0.48,0.435 C 0.959,0.011 0.479,0.002 0,0"
             style="fill:#999999;fill-opacity:1;fill-rule:nonzero;stroke:none"
             id="path4106"
             inkscape:connector-curvature="0" />
        </g>
        <g
           id="g4108"
           transform="translate(856.3193,752.4629)">
          <path
             d="m 0,0 c -0.147,-0.018 -0.239,-0.14 -0.239,-0.269 v -2.508 c 0,-0.166 0.11,-0.264 0.295,-0.242 0.534,0.067 1.07,0.135 1.605,0.207 0.184,0.025 0.294,-0.071 0.276,-0.239 C 1.9,-3.615 1.864,-4.181 1.827,-4.745 1.808,-4.895 1.679,-5.023 1.513,-5.045 1.009,-5.112 0.505,-5.177 0,-5.238 -0.147,-5.257 -0.239,-5.379 -0.239,-5.508 v -2.729 c 0,-0.166 0.092,-0.267 0.239,-0.248 1.033,0.126 2.066,0.264 3.1,0.413 0.183,0.025 0.295,-0.069 0.276,-0.238 -0.037,-0.564 -0.074,-1.129 -0.11,-1.694 -0.019,-0.15 -0.149,-0.28 -0.314,-0.304 -1.84,-0.26 -3.678,-0.492 -5.515,-0.678 -0.185,-0.019 -0.278,0.083 -0.278,0.249 V 1.622 c 0,0.165 0.093,0.285 0.278,0.304 C -0.676,2.117 1.212,2.356 3.1,2.627 3.283,2.653 3.395,2.559 3.376,2.39 3.339,1.825 3.302,1.26 3.266,0.694 3.247,0.545 3.117,0.415 2.952,0.392 1.968,0.252 0.983,0.121 0,0"
             style="fill:#999999;fill-opacity:1;fill-rule:nonzero;stroke:none"
             id="path4110"
             inkscape:connector-curvature="0" />
        </g>
        <g
           id="g4112"
           transform="translate(863.1074,742.7383)">
          <path
             d="m 0,0 c -1.364,-0.219 -2.213,0.431 -2.213,2.146 v 7.932 c -10e-4,1.716 0.849,2.616 2.213,2.834 0.781,0.125 1.562,0.254 2.344,0.384 1.364,0.228 2.231,-0.398 2.231,-2.113 V 9.817 C 4.575,9.651 4.446,9.519 4.28,9.49 3.61,9.352 2.939,9.215 2.27,9.078 2.085,9.047 1.974,9.14 1.974,9.306 v 1.475 c 0,0.148 -0.129,0.218 -0.294,0.192 C 1.328,10.914 0.979,10.856 0.628,10.8 0.479,10.776 0.388,10.65 0.388,10.521 V 2.552 c 0,-0.165 0.111,-0.258 0.295,-0.229 0.344,0.057 0.688,0.113 1.033,0.17 0.147,0.024 0.258,0.153 0.258,0.282 v 1.366 c 0,0.166 0.111,0.295 0.296,0.325 C 2.939,4.603 3.61,4.74 4.28,4.879 4.446,4.907 4.575,4.818 4.575,4.652 V 3.251 C 4.575,1.535 3.709,0.612 2.344,0.384 1.562,0.253 0.781,0.125 0,0"
             style="fill:#999999;fill-opacity:1;fill-rule:nonzero;stroke:none"
             id="path4114"
             inkscape:connector-curvature="0" />
        </g>
        <g
           id="g4116"
           transform="translate(871.4639,744.1436)">
          <path
             d="m 0,0 c -1.365,-0.231 -2.214,0.396 -2.214,2.112 v 10.164 c 0,0.167 0.093,0.275 0.277,0.307 0.683,0.116 1.365,0.233 2.048,0.349 0.165,0.027 0.277,-0.046 0.277,-0.212 V 2.519 c 0,-0.148 0.129,-0.218 0.295,-0.19 0.406,0.068 0.811,0.137 1.216,0.204 0.13,0.022 0.241,0.113 0.241,0.28 0.006,3.401 0.012,6.802 0.018,10.204 0,0.165 0.129,0.279 0.296,0.307 0.67,0.111 1.34,0.218 2.01,0.323 0.184,0.031 0.296,-0.044 0.296,-0.21 V 3.272 C 4.76,1.556 3.911,0.649 2.527,0.423 1.685,0.284 0.842,0.143 0,0"
             style="fill:#999999;fill-opacity:1;fill-rule:nonzero;stroke:none"
             id="path4118"
             inkscape:connector-curvature="0" />
        </g>
        <g
           id="g4120"
           transform="translate(882.1807,756.1895)">
          <path
             d="M 0,0 C 0,0.166 -0.11,0.264 -0.295,0.24 -0.639,0.197 -0.983,0.153 -1.328,0.107 -1.476,0.088 -1.567,-0.034 -1.567,-0.163 v -5.59 c 0,-0.166 0.11,-0.263 0.295,-0.237 0.343,0.045 0.688,0.089 1.033,0.131 C -0.092,-5.84 0,-5.718 0,-5.552 Z m -1.272,-8.204 c -0.166,-0.023 -0.295,-0.132 -0.295,-0.279 v -1.864 c 0,-0.166 -0.093,-0.288 -0.278,-0.313 -0.681,-0.092 -1.365,-0.19 -2.047,-0.289 -0.147,-0.022 -0.277,0.069 -0.277,0.235 v 12.36 c 0,0.166 0.13,0.295 0.277,0.317 1.42,0.209 2.841,0.402 4.261,0.572 1.365,0.163 2.233,-0.529 2.233,-2.244 v -5.552 c 0,-0.978 -0.295,-1.653 -0.794,-2.02 -0.092,-0.066 -0.11,-0.214 -0.055,-0.357 0.308,-0.722 0.615,-1.447 0.923,-2.173 0.073,-0.158 0.017,-0.311 -0.185,-0.332 -0.683,-0.069 -1.365,-0.144 -2.048,-0.225 -0.147,-0.019 -0.277,0.04 -0.35,0.197 -0.265,0.632 -0.53,1.263 -0.793,1.893 -0.037,0.088 -0.112,0.133 -0.222,0.119 -0.116,-0.015 -0.233,-0.03 -0.35,-0.045"
             style="fill:#999999;fill-opacity:1;fill-rule:nonzero;stroke:none"
             id="path4122"
             inkscape:connector-curvature="0" />
        </g>
        <g
           id="g4124"
           transform="translate(889.3008,757.1113)">
          <path
             d="m 0,0 c -0.146,-0.008 -0.239,-0.124 -0.239,-0.254 v -2.508 c 0,-0.166 0.11,-0.27 0.295,-0.26 0.535,0.029 1.07,0.052 1.605,0.07 C 1.845,-2.946 1.956,-3.054 1.937,-3.22 1.9,-3.78 1.863,-4.341 1.827,-4.902 1.809,-5.05 1.679,-5.165 1.514,-5.171 1.009,-5.189 0.505,-5.212 0,-5.238 -0.146,-5.247 -0.239,-5.362 -0.239,-5.492 v -2.73 c 0,-0.167 0.092,-0.271 0.239,-0.263 1.034,0.055 2.066,0.092 3.1,0.108 0.183,0.003 0.295,-0.107 0.277,-0.273 -0.037,-0.561 -0.074,-1.12 -0.111,-1.681 -0.019,-0.147 -0.148,-0.259 -0.314,-0.262 -1.838,-0.031 -3.678,-0.131 -5.515,-0.282 -0.185,-0.015 -0.277,0.088 -0.277,0.255 V 1.738 c 0,0.167 0.092,0.284 0.277,0.301 C -0.676,2.193 1.211,2.294 3.1,2.322 3.283,2.324 3.395,2.216 3.377,2.049 3.34,1.489 3.303,0.929 3.266,0.369 3.247,0.221 3.118,0.108 2.952,0.106 1.969,0.09 0.984,0.054 0,0"
             style="fill:#999999;fill-opacity:1;fill-rule:nonzero;stroke:none"
             id="path4126"
             inkscape:connector-curvature="0" />
        </g>
        <g
           id="g4128"
           transform="translate(847.6201,731.8701)">
          <path
             d="M 0,0 C -1.476,-0.014 -2.387,0.994 -2.387,2.686 V 5 c 0,1.694 0.838,2.455 2.186,2.498 C 0.601,7.523 1.402,7.562 2.203,7.612 3.57,7.697 4.408,7.01 4.408,5.314 V 4.039 C 4.408,3.876 4.299,3.757 4.116,3.724 3.454,3.633 2.793,3.549 2.131,3.473 1.967,3.462 1.839,3.565 1.839,3.729 V 5.168 C 1.839,5.295 1.73,5.398 1.603,5.391 1.208,5.369 0.813,5.351 0.419,5.335 0.255,5.328 0.127,5.232 0.127,5.087 V 2.719 c 0,-0.254 0.128,-0.45 0.474,-0.455 0.473,0.008 0.947,0.02 1.42,0.037 1.495,0.053 2.387,-0.846 2.387,-2.542 v -2.277 c 0,-1.692 -0.838,-2.536 -2.186,-2.62 -0.802,-0.049 -1.603,-0.088 -2.405,-0.114 -1.366,-0.044 -2.204,0.727 -2.204,2.419 v 1.275 c 0,0.164 0.128,0.274 0.292,0.293 0.662,0.041 1.324,0.091 1.985,0.151 0.182,0.006 0.292,-0.099 0.292,-0.264 v -1.438 c 0,-0.127 0.09,-0.234 0.237,-0.228 0.4,0.017 0.802,0.036 1.202,0.057 0.146,0.008 0.273,0.107 0.273,0.234 v 2.35 c 0,0.256 -0.109,0.43 -0.474,0.429 C 0.947,0.014 0.474,0.005 0,0"
             style="fill:#999999;fill-opacity:1;fill-rule:nonzero;stroke:none"
             id="path4130"
             inkscape:connector-curvature="0" />
        </g>
        <g
           id="g4132"
           transform="translate(856.3994,737.916)">
          <path
             d="m 0,0 c -0.146,-0.017 -0.237,-0.138 -0.237,-0.266 v -2.476 c 0,-0.164 0.109,-0.261 0.292,-0.238 0.527,0.065 1.055,0.133 1.584,0.205 0.182,0.024 0.292,-0.071 0.273,-0.237 C 1.876,-3.569 1.839,-4.127 1.803,-4.685 1.784,-4.833 1.657,-4.959 1.493,-4.98 0.995,-5.048 0.497,-5.111 0,-5.173 -0.146,-5.19 -0.237,-5.312 -0.237,-5.438 v -2.696 c 0,-0.164 0.091,-0.262 0.237,-0.245 1.02,0.126 2.04,0.263 3.06,0.409 0.182,0.026 0.292,-0.068 0.273,-0.234 -0.037,-0.558 -0.072,-1.115 -0.109,-1.674 -0.019,-0.147 -0.146,-0.275 -0.31,-0.299 -1.816,-0.259 -3.631,-0.488 -5.446,-0.674 -0.182,-0.018 -0.274,0.082 -0.274,0.247 V 1.599 c 0,0.164 0.092,0.283 0.274,0.3 C -0.668,2.091 1.196,2.328 3.06,2.595 3.242,2.621 3.352,2.527 3.333,2.361 3.296,1.804 3.261,1.245 3.224,0.688 3.205,0.539 3.078,0.411 2.914,0.388 1.942,0.25 0.971,0.119 0,0"
             style="fill:#999999;fill-opacity:1;fill-rule:nonzero;stroke:none"
             id="path4134"
             inkscape:connector-curvature="0" />
        </g>
        <g
           id="g4136"
           transform="translate(865.1055,733.7422)">
          <path
             d="M 0,0 V 5.228 C 0,5.355 -0.109,5.446 -0.255,5.422 L -1.33,5.246 C -1.476,5.222 -1.566,5.099 -1.566,4.972 v -5.229 c 0,-0.164 0.109,-0.255 0.291,-0.225 0.34,0.055 0.68,0.111 1.02,0.167 C -0.091,-0.271 0,-0.164 0,0 m -3.861,-5.718 c -0.182,-0.028 -0.274,0.069 -0.274,0.232 V 4.532 c 0,1.695 0.838,2.584 2.186,2.8 0.771,0.123 1.543,0.25 2.313,0.379 C 1.712,7.937 2.568,7.318 2.568,5.624 V -4.394 C 2.568,-4.559 2.441,-4.689 2.276,-4.717 1.615,-4.829 0.953,-4.941 0.291,-5.052 0.109,-5.082 0,-4.99 0,-4.827 v 2.096 c 0,0.163 -0.109,0.253 -0.291,0.223 -0.347,-0.056 -0.692,-0.113 -1.039,-0.169 -0.146,-0.024 -0.236,-0.148 -0.236,-0.275 v -2.132 c 0,-0.163 -0.11,-0.29 -0.274,-0.317 -0.674,-0.108 -1.348,-0.214 -2.021,-0.317"
             style="fill:#999999;fill-opacity:1;fill-rule:nonzero;stroke:none"
             id="path4138"
             inkscape:connector-curvature="0" />
        </g>
        <g
           id="g4140"
           transform="translate(873.5566,740.3643)">
          <path
             d="m 0,0 c 0,0.164 -0.109,0.255 -0.291,0.225 -0.34,-0.057 -0.68,-0.114 -1.02,-0.171 -0.146,-0.025 -0.237,-0.15 -0.237,-0.277 v -5.519 c 0,-0.164 0.109,-0.255 0.291,-0.224 0.34,0.058 0.681,0.113 1.021,0.171 C -0.091,-5.771 0,-5.646 0,-5.482 Z M -1.257,-8.151 C -1.42,-8.179 -1.548,-8.292 -1.548,-8.438 v -1.839 c 0,-0.164 -0.091,-0.289 -0.272,-0.32 -0.675,-0.114 -1.349,-0.229 -2.024,-0.344 -0.144,-0.025 -0.272,0.062 -0.272,0.226 V 1.489 c 0,0.164 0.128,0.296 0.272,0.32 1.404,0.24 2.806,0.478 4.208,0.71 1.348,0.222 2.204,-0.41 2.204,-2.104 V -5.068 C 2.568,-6.033 2.277,-6.716 1.785,-7.104 1.694,-7.174 1.676,-7.322 1.73,-7.46 2.034,-8.157 2.338,-8.856 2.642,-9.556 2.715,-9.707 2.66,-9.862 2.459,-9.894 1.785,-10 1.111,-10.108 0.437,-10.22 c -0.145,-0.023 -0.273,0.028 -0.345,0.18 -0.262,0.613 -0.523,1.225 -0.783,1.837 -0.038,0.085 -0.11,0.128 -0.22,0.109 -0.115,-0.019 -0.231,-0.038 -0.346,-0.057"
             style="fill:#999999;fill-opacity:1;fill-rule:nonzero;stroke:none"
             id="path4142"
             inkscape:connector-curvature="0" />
        </g>
        <g
           id="g4144"
           transform="translate(879.8594,731.042)">
          <path
             d="m 0,0 c -1.349,-0.187 -2.187,0.448 -2.187,2.144 v 7.832 c 0,1.693 0.838,2.587 2.187,2.774 0.771,0.107 1.542,0.208 2.313,0.303 1.347,0.164 2.204,-0.516 2.204,-2.209 V 9.496 C 4.517,9.332 4.39,9.209 4.226,9.192 3.563,9.097 2.902,8.996 2.24,8.891 2.058,8.868 1.949,8.964 1.949,9.128 v 1.457 c 0,0.145 -0.129,0.221 -0.292,0.2 C 1.311,10.74 0.965,10.695 0.619,10.649 0.474,10.629 0.383,10.508 0.383,10.38 V 2.512 c 0,-0.164 0.108,-0.259 0.291,-0.235 0.34,0.046 0.68,0.09 1.019,0.134 0.146,0.018 0.256,0.142 0.256,0.269 v 1.347 c 0,0.164 0.109,0.287 0.291,0.31 C 2.902,4.442 3.563,4.544 4.226,4.638 4.39,4.655 4.517,4.56 4.517,4.396 V 3.012 C 4.517,1.316 3.66,0.467 2.313,0.302 1.542,0.208 0.771,0.106 0,0"
             style="fill:#999999;fill-opacity:1;fill-rule:nonzero;stroke:none"
             id="path4146"
             inkscape:connector-curvature="0" />
        </g>
        <g
           id="g4148"
           transform="translate(888.8379,737.3555)">
          <path
             d="m 0,0 c -0.163,-0.01 -0.291,-0.127 -0.291,-0.272 v -4.864 c 0,-0.164 -0.091,-0.279 -0.273,-0.291 -0.674,-0.044 -1.347,-0.095 -2.022,-0.154 -0.145,-0.013 -0.273,0.084 -0.273,0.249 V 6.872 c 0,0.164 0.128,0.284 0.273,0.297 0.675,0.059 1.348,0.11 2.022,0.154 0.182,0.013 0.273,-0.092 0.273,-0.255 V 2.441 C -0.291,2.277 -0.182,2.176 0,2.187 0.419,2.21 0.839,2.233 1.258,2.251 1.403,2.258 1.513,2.372 1.513,2.535 v 4.627 c 0,0.163 0.109,0.278 0.255,0.283 0.679,0.027 1.36,0.044 2.04,0.052 C 3.972,7.499 4.062,7.39 4.062,7.227 V -4.978 c 0,-0.164 -0.091,-0.274 -0.254,-0.275 -0.68,-0.009 -1.361,-0.026 -2.04,-0.053 -0.146,-0.005 -0.255,0.1 -0.255,0.264 v 4.846 c 0,0.163 -0.128,0.267 -0.291,0.26 C 0.814,0.045 0.407,0.024 0,0"
             style="fill:#999999;fill-opacity:1;fill-rule:nonzero;stroke:none"
             id="path4150"
             inkscape:connector-curvature="0" />
        </g>
        <g
           id="g4152"
           transform="translate(849.5137,720.4678)">
          <path
             d="m 0,0 c -0.181,-0.45 -0.343,-0.91 -0.554,-1.347 -0.08,-0.167 -0.253,-0.346 -0.421,-0.409 -0.287,-0.108 -0.483,0.034 -0.589,0.334 -0.159,0.446 -0.357,0.878 -0.539,1.318 -0.053,-0.012 -0.108,-0.025 -0.162,-0.036 -0.014,-0.165 -0.042,-0.329 -0.043,-0.494 -0.005,-0.905 -0.012,-1.811 0.003,-2.717 0.007,-0.34 -0.108,-0.481 -0.457,-0.462 -0.31,0.018 -0.626,0.007 -0.937,-0.016 -0.31,-0.023 -0.4,0.118 -0.4,0.404 0.005,2.684 0.006,5.367 0,8.051 -10e-4,0.296 0.114,0.396 0.408,0.415 1.315,0.083 1.315,0.1 1.695,-1.164 0.238,-0.795 0.475,-1.591 0.717,-2.383 0.044,-0.144 0.105,-0.283 0.279,-0.42 0.054,0.145 0.114,0.287 0.159,0.435 0.316,1.053 0.646,2.104 0.932,3.167 0.1,0.372 0.257,0.52 0.643,0.544 1.254,0.08 1.254,0.101 1.254,-1.153 0,-2.321 0.001,-4.642 0,-6.963 0,-0.66 0,-0.662 -0.634,-0.709 -1.148,-0.083 -1.148,-0.078 -1.148,1.094 0,0.676 0.002,1.351 -0.002,2.026 0,0.152 -0.021,0.302 -0.033,0.455 C 0.115,-0.021 0.058,-0.01 0,0"
             style="fill:#880000;fill-opacity:1;fill-rule:evenodd;stroke:none"
             id="path4154"
             inkscape:connector-curvature="0" />
        </g>
        <g
           id="g4156"
           transform="translate(860.3975,721.7412)">
          <path
             d="m 0,0 v -2.695 c 0,-1.088 0,-1.091 -1.093,-1.247 -0.689,-0.098 -0.689,-0.096 -0.689,0.597 -10e-4,2.534 0.009,5.072 -0.009,7.604 -0.003,0.421 0.093,0.597 0.543,0.646 0.988,0.11 0.777,0.152 1.095,-0.575 C 0.21,3.503 0.554,2.665 0.91,1.835 0.974,1.687 1.063,1.553 1.142,1.411 1.188,1.426 1.235,1.439 1.282,1.453 1.298,1.618 1.327,1.785 1.328,1.948 1.332,2.888 1.342,3.827 1.323,4.763 1.316,5.132 1.411,5.301 1.819,5.363 3.098,5.564 3.098,5.584 3.098,4.305 3.098,1.951 3.088,-0.404 3.107,-2.756 3.11,-3.186 2.996,-3.352 2.554,-3.398 1.644,-3.496 1.811,-3.641 1.466,-2.836 1.111,-2.007 0.759,-1.174 0.4,-0.346 0.337,-0.198 0.246,-0.065 0.167,0.074 0.111,0.049 0.056,0.025 0,0"
             style="fill:#880000;fill-opacity:1;fill-rule:evenodd;stroke:none"
             id="path4158"
             inkscape:connector-curvature="0" />
        </g>
        <g
           id="g4160"
           transform="translate(855.5889,722.6367)">
          <path
             d="M 0,0 C 0,0.542 -0.018,1.082 0.006,1.627 0.022,1.996 -0.18,2.018 -0.455,1.95 -0.71,1.888 -1.092,2.042 -1.088,1.522 -1.08,0.44 -1.083,-0.645 -1.087,-1.729 -1.089,-2.243 -0.706,-2.012 -0.449,-2.017 -0.16,-2.022 0.021,-1.93 0.006,-1.576 -0.016,-1.055 0,-0.526 0,0 m 1.785,-1.239 c 0,-1.118 -0.01,-2.238 0.006,-3.354 0.006,-0.367 -0.082,-0.532 -0.492,-0.581 -1.29,-0.15 -1.306,-0.165 -1.289,1.132 0.006,0.423 -0.1,0.564 -0.546,0.512 -0.431,-0.052 -0.567,-0.189 -0.561,-0.625 0.018,-1.315 0,-1.313 -1.318,-1.432 -0.338,-0.029 -0.463,0.057 -0.461,0.405 0.012,2.253 -0.008,4.504 0.014,6.759 0.01,1.169 0.545,1.699 1.723,1.833 0.46,0.053 0.921,0.112 1.381,0.153 C 1.228,3.648 1.741,3.24 1.768,2.26 1.8,1.098 1.775,-0.074 1.775,-1.241 c 0.003,0.001 0.007,0.001 0.01,0.002"
             style="fill:#880000;fill-opacity:1;fill-rule:evenodd;stroke:none"
             id="path4162"
             inkscape:connector-curvature="0" />
        </g>
        <g
           id="g4164"
           transform="translate(891.2881,729.4609)">
          <path
             d="m 0,0 c -0.264,-0.008 -0.444,-0.034 -0.619,-0.017 -0.464,0.044 -0.627,-0.129 -0.616,-0.616 0.029,-1.557 0.031,-3.117 -10e-4,-4.678 -0.01,-0.492 0.186,-0.567 0.608,-0.536 0.378,0.027 0.657,0.022 0.64,0.553 C -0.025,-4.131 0,-2.964 0,-1.799 Z m -3.007,-3.066 c 0,0.906 -0.009,1.811 0.002,2.717 0.014,1.227 0.527,1.77 1.756,1.835 0.461,0.023 0.922,0.044 1.383,0.049 1.096,0.013 1.6,-0.453 1.638,-1.568 0.039,-1.168 0.014,-2.338 0.015,-3.507 0,-0.708 0.019,-1.417 -0.009,-2.124 -0.046,-1.165 -0.545,-1.626 -1.702,-1.66 -0.477,-0.015 -0.955,-0.034 -1.432,-0.054 -1.082,-0.046 -1.596,0.412 -1.649,1.496 -10e-4,0.033 -0.002,0.067 -0.002,0.099 z"
             style="fill:#880000;fill-opacity:1;fill-rule:evenodd;stroke:none"
             id="path4166"
             inkscape:connector-curvature="0" />
        </g>
        <g
           id="g4168"
           transform="translate(879.6348,722.5859)">
          <path
             d="M 0,0 C 0.261,0.036 0.556,0.048 0.84,0.13 0.944,0.16 1.093,0.364 1.101,0.48 1.131,0.944 1.144,1.411 1.094,1.86 1.078,2.003 0.864,2.175 0.708,2.189 0.409,2.216 0.087,2.135 -0.226,2.104 -1.15,2.01 -1.781,2.487 -1.833,3.409 c -0.044,0.765 -0.04,1.543 -0.001,2.32 0.041,0.805 0.521,1.359 1.319,1.522 0.672,0.137 1.351,0.23 2.023,0.274 C 2.298,7.576 2.719,7.179 2.818,6.401 2.822,6.37 2.826,6.338 2.83,6.305 2.966,4.952 2.735,4.696 1.365,4.679 1.256,4.678 1.145,4.827 1.075,4.936 1.031,5.004 1.064,5.127 1.063,5.226 1.06,5.965 0.864,6.098 0.119,5.814 0.02,5.776 -0.107,5.594 -0.113,5.487 -0.137,5.008 -0.153,4.524 -0.104,4.06 -0.088,3.921 0.135,3.756 0.29,3.746 0.625,3.724 0.979,3.8 1.323,3.82 2.149,3.869 2.732,3.438 2.795,2.616 2.858,1.79 2.855,0.944 2.8,0.103 2.748,-0.678 2.226,-1.187 1.458,-1.311 0.817,-1.414 0.174,-1.503 -0.468,-1.573 c -0.762,-0.084 -1.269,0.298 -1.358,1.042 -0.049,0.399 -0.042,0.817 -0.016,1.23 0.007,0.111 0.178,0.237 0.279,0.35 0.018,0.02 0.063,0.018 0.096,0.024 0.426,0.074 0.977,0.328 1.24,0.163 C 0.009,1.089 -0.071,0.483 0,0"
             style="fill:#880000;fill-opacity:1;fill-rule:evenodd;stroke:none"
             id="path4170"
             inkscape:connector-curvature="0" />
        </g>
        <g
           id="g4172"
           transform="translate(876.9531,722.1875)">
          <path
             d="m 0,0 c 0.043,-0.096 0.055,-0.108 0.056,-0.124 0.085,-1.365 0.085,-1.362 -1.285,-1.579 -0.84,-0.133 -1.68,-0.259 -2.519,-0.415 -0.317,-0.059 -0.439,0.02 -0.438,0.347 0.008,2.684 0.008,5.368 0.001,8.048 -0.001,0.307 0.128,0.423 0.415,0.469 1.152,0.184 2.304,0.371 3.457,0.559 0.296,0.048 0.405,-0.04 0.386,-0.35 -0.08,-1.344 0.073,-1.102 -1.121,-1.3 -1.35,-0.224 -1.351,-0.219 -1.349,-1.589 0,-0.703 0,-0.702 0.7,-0.589 0.115,0.017 0.232,0.025 0.345,0.056 C -1.013,3.626 -0.85,3.529 -0.92,3.159 -0.93,3.11 -0.927,3.061 -0.93,3.011 -0.974,1.887 -0.925,2.1 -1.887,1.949 -2.262,1.891 -2.434,1.774 -2.404,1.371 -2.374,0.95 -2.379,0.519 -2.403,0.088 -2.426,-0.293 -2.269,-0.377 -1.911,-0.308 -1.273,-0.184 -0.636,-0.098 0,0"
             style="fill:#880000;fill-opacity:1;fill-rule:evenodd;stroke:none"
             id="path4174"
             inkscape:connector-curvature="0" />
        </g>
        <g
           id="g4176"
           transform="translate(871.0703,724.9687)">
          <path
             d="M 0,0 C 0,-0.225 0.004,-0.368 -0.001,-0.514 -0.034,-1.493 -0.035,-1.508 -1,-1.669 c -0.359,-0.06 -0.493,-0.185 -0.484,-0.559 0.023,-0.932 -0.002,-1.876 0.012,-2.811 0.006,-0.319 -0.061,-0.48 -0.43,-0.548 -1.355,-0.252 -1.355,-0.265 -1.355,1.089 0,2.32 0.015,4.644 -0.012,6.959 -0.004,0.491 0.158,0.637 0.618,0.702 1.036,0.148 2.073,0.334 3.11,0.526 C 0.82,3.757 0.951,3.674 0.922,3.286 0.828,2.081 1.033,2.254 -0.168,2.046 -1.477,1.817 -1.479,1.821 -1.476,0.566 -1.473,-0.301 -1.6,-0.273 -0.653,-0.111 -0.458,-0.078 -0.265,-0.046 0,0"
             style="fill:#880000;fill-opacity:1;fill-rule:evenodd;stroke:none"
             id="path4178"
             inkscape:connector-curvature="0" />
        </g>
        <g
           id="g4180"
           transform="translate(884.4287,725.3467)">
          <path
             d="m 0,0 c 0,1.052 -0.012,2.103 0.007,3.157 0.006,0.346 -0.064,0.492 -0.455,0.446 -0.9,-0.111 -0.875,-0.089 -0.866,0.816 0.002,0.462 0.14,0.65 0.622,0.69 C 0.441,5.203 1.576,5.324 2.711,5.426 3.051,5.456 3.207,5.36 3.146,5.004 3.132,4.922 3.138,4.84 3.133,4.757 3.085,3.928 3.084,3.909 2.273,3.862 1.871,3.838 1.773,3.687 1.776,3.307 1.792,1.22 1.774,-0.87 1.792,-2.956 1.795,-3.366 1.715,-3.541 1.255,-3.574 0.001,-3.668 0,-3.696 0,-2.417 Z"
             style="fill:#880000;fill-opacity:1;fill-rule:evenodd;stroke:none"
             id="path4182"
             inkscape:connector-curvature="0" />
        </g>
        <g
           id="g4184"
           transform="translate(866.54,723.3721)">
          <path
             d="m 0,0 c 0,-1.298 -0.013,-2.6 0.007,-3.895 0.006,-0.384 -0.071,-0.562 -0.509,-0.629 -1.28,-0.197 -1.28,-0.215 -1.28,1.088 0,2.318 0.011,4.638 -0.01,6.952 -0.004,0.457 0.1,0.654 0.595,0.725 C -0.001,4.415 0,4.439 0,3.254 Z"
             style="fill:#880000;fill-opacity:1;fill-rule:evenodd;stroke:none"
             id="path4186"
             inkscape:connector-curvature="0" />
        </g>
        <g
           id="g4188"
           transform="translate(893.0732,718.2178)">
          <path
             d="m 0,0 c -15.889,-0.092 -31.777,-5.434 -47.667,-5.526 -0.229,-0.001 -0.417,0.115 -0.417,0.344 0,0.231 0.188,0.347 0.417,0.348 C -31.777,-4.741 -15.889,0.601 0,0.693 0.231,0.694 0.418,0.578 0.418,0.349 0.418,0.117 0.231,0.002 0,0"
             style="fill:#000000;fill-opacity:1;fill-rule:nonzero;stroke:none"
             id="path4190"
             inkscape:connector-curvature="0" />
        </g>
        <g
           id="g4192"
           transform="translate(893.0732,719.6045)">
          <path
             d="m 0,0 c -15.889,-0.094 -31.777,-5.435 -47.667,-5.527 -0.099,-10e-4 -0.179,0.074 -0.179,0.172 0,0.099 0.08,0.173 0.179,0.174 C -31.777,-5.089 -15.889,0.253 0,0.346 0.099,0.347 0.179,0.272 0.179,0.173 0.179,0.074 0.099,0 0,0"
             style="fill:#000000;fill-opacity:1;fill-rule:nonzero;stroke:none"
             id="path4194"
             inkscape:connector-curvature="0" />
        </g>
        <g
           id="g4196"
           transform="translate(893.0732,763.6016)">
          <path
             d="m 0,0 c -15.889,-0.093 -31.777,-5.434 -47.667,-5.526 -0.229,-0.002 -0.417,0.114 -0.417,0.344 0,0.231 0.188,0.347 0.417,0.348 C -31.777,-4.741 -15.889,0.601 0,0.693 0.231,0.694 0.418,0.578 0.418,0.348 0.418,0.117 0.231,0.002 0,0"
             style="fill:#000000;fill-opacity:1;fill-rule:nonzero;stroke:none"
             id="path4198"
             inkscape:connector-curvature="0" />
        </g>
        <g
           id="g4200"
           transform="translate(893.0732,762.5615)">
          <path
             d="m 0,0 c -15.889,-0.092 -31.777,-5.434 -47.667,-5.525 -0.099,-10e-4 -0.179,0.073 -0.179,0.171 0,0.099 0.08,0.173 0.179,0.174 15.89,0.093 31.778,5.435 47.667,5.528 0.099,0 0.179,-0.075 0.179,-0.173 C 0.179,0.076 0.099,0.001 0,0"
             style="fill:#000000;fill-opacity:1;fill-rule:nonzero;stroke:none"
             id="path4202"
             inkscape:connector-curvature="0" />
        </g>
        <g
           id="g4204"
           transform="translate(847.4287,746.6992)">
          <path
             d="m 0,0 c -1.494,-0.011 -2.416,1.013 -2.416,2.727 v 2.342 c 0,1.718 0.848,2.485 2.213,2.525 0.811,0.024 1.624,0.061 2.435,0.109 1.383,0.085 2.232,-0.612 2.232,-2.33 V 4.082 C 4.464,3.917 4.354,3.796 4.169,3.763 3.499,3.672 2.828,3.588 2.158,3.512 1.992,3.502 1.863,3.606 1.863,3.771 v 1.458 c 0,0.129 -0.111,0.234 -0.24,0.227 C 1.224,5.435 0.823,5.417 0.424,5.401 0.258,5.396 0.129,5.299 0.129,5.151 V 2.753 c 0,-0.258 0.129,-0.457 0.479,-0.461 0.48,0.007 0.96,0.018 1.44,0.033 1.513,0.051 2.416,-0.86 2.416,-2.578 v -2.306 c 0,-1.713 -0.849,-2.566 -2.214,-2.649 -0.812,-0.048 -1.623,-0.085 -2.435,-0.11 -1.383,-0.041 -2.231,0.741 -2.231,2.456 v 1.291 c 0,0.166 0.128,0.276 0.294,0.296 0.671,0.04 1.341,0.088 2.012,0.146 0.183,0.007 0.295,-0.1 0.295,-0.267 v -1.457 c 0,-0.128 0.091,-0.237 0.239,-0.231 0.406,0.016 0.811,0.033 1.218,0.056 0.147,0.007 0.276,0.106 0.276,0.236 v 2.379 c 0,0.259 -0.11,0.435 -0.48,0.435 C 0.959,0.012 0.479,0.003 0,0"
             style="fill:#009dda;fill-opacity:1;fill-rule:nonzero;stroke:none"
             id="path4206"
             inkscape:connector-curvature="0" />
        </g>
        <g
           id="g4208"
           transform="translate(856.3193,752.8096)">
          <path
             d="m 0,0 c -0.147,-0.018 -0.239,-0.14 -0.239,-0.269 v -2.508 c 0,-0.167 0.11,-0.264 0.295,-0.242 0.534,0.067 1.07,0.135 1.605,0.207 0.184,0.024 0.294,-0.071 0.276,-0.239 C 1.9,-3.616 1.864,-4.181 1.827,-4.745 1.808,-4.896 1.679,-5.023 1.513,-5.045 1.009,-5.112 0.505,-5.178 0,-5.239 -0.147,-5.257 -0.239,-5.379 -0.239,-5.508 v -2.729 c 0,-0.167 0.092,-0.267 0.239,-0.248 1.033,0.127 2.066,0.264 3.1,0.413 0.183,0.025 0.295,-0.07 0.276,-0.239 -0.037,-0.564 -0.074,-1.128 -0.11,-1.693 -0.019,-0.15 -0.149,-0.28 -0.314,-0.304 -1.84,-0.26 -3.678,-0.493 -5.515,-0.679 -0.185,-0.018 -0.278,0.083 -0.278,0.249 V 1.621 c 0,0.166 0.093,0.286 0.278,0.305 1.887,0.191 3.775,0.43 5.663,0.7 C 3.283,2.652 3.395,2.559 3.376,2.39 3.339,1.824 3.302,1.26 3.266,0.694 3.247,0.545 3.117,0.415 2.952,0.392 1.968,0.252 0.983,0.12 0,0"
             style="fill:#009dda;fill-opacity:1;fill-rule:nonzero;stroke:none"
             id="path4210"
             inkscape:connector-curvature="0" />
        </g>
        <g
           id="g4212"
           transform="translate(863.1074,743.085)">
          <path
             d="m 0,0 c -1.364,-0.219 -2.213,0.431 -2.213,2.145 v 7.932 c -10e-4,1.716 0.849,2.617 2.213,2.835 0.781,0.125 1.562,0.254 2.344,0.384 1.364,0.227 2.231,-0.399 2.231,-2.113 V 9.817 C 4.575,9.651 4.446,9.519 4.28,9.49 3.61,9.352 2.939,9.214 2.27,9.078 2.085,9.047 1.974,9.14 1.974,9.306 v 1.475 c 0,0.147 -0.129,0.218 -0.294,0.192 C 1.328,10.913 0.979,10.856 0.628,10.799 0.479,10.775 0.388,10.65 0.388,10.521 V 2.552 c 0,-0.166 0.111,-0.259 0.295,-0.229 0.344,0.056 0.688,0.113 1.033,0.169 0.147,0.025 0.258,0.154 0.258,0.283 v 1.366 c 0,0.166 0.111,0.295 0.296,0.325 C 2.939,4.602 3.61,4.74 4.28,4.879 4.446,4.907 4.575,4.817 4.575,4.652 V 3.25 C 4.575,1.535 3.709,0.611 2.344,0.383 1.562,0.253 0.781,0.125 0,0"
             style="fill:#009dda;fill-opacity:1;fill-rule:nonzero;stroke:none"
             id="path4214"
             inkscape:connector-curvature="0" />
        </g>
        <g
           id="g4216"
           transform="translate(871.4639,744.4902)">
          <path
             d="m 0,0 c -1.365,-0.231 -2.214,0.396 -2.214,2.113 v 10.163 c 0,0.166 0.093,0.275 0.277,0.307 0.683,0.116 1.365,0.232 2.048,0.348 0.165,0.028 0.277,-0.045 0.277,-0.211 V 2.519 c 0,-0.148 0.129,-0.217 0.295,-0.19 0.406,0.067 0.811,0.136 1.216,0.203 0.13,0.022 0.241,0.114 0.241,0.28 0.006,3.401 0.012,6.803 0.018,10.205 0,0.165 0.129,0.279 0.296,0.306 0.67,0.111 1.34,0.219 2.01,0.325 0.184,0.029 0.296,-0.045 0.296,-0.211 V 3.271 C 4.76,1.556 3.911,0.65 2.527,0.423 1.685,0.284 0.842,0.143 0,0"
             style="fill:#009dda;fill-opacity:1;fill-rule:nonzero;stroke:none"
             id="path4218"
             inkscape:connector-curvature="0" />
        </g>
        <g
           id="g4220"
           transform="translate(882.1807,756.5361)">
          <path
             d="M 0,0 C 0,0.165 -0.11,0.264 -0.295,0.24 -0.639,0.197 -0.983,0.152 -1.328,0.107 -1.476,0.088 -1.567,-0.035 -1.567,-0.164 v -5.589 c 0,-0.167 0.11,-0.263 0.295,-0.238 0.343,0.046 0.688,0.09 1.033,0.133 C -0.092,-5.841 0,-5.718 0,-5.553 Z m -1.272,-8.204 c -0.166,-0.023 -0.295,-0.132 -0.295,-0.279 v -1.864 c 0,-0.166 -0.093,-0.289 -0.278,-0.313 -0.681,-0.092 -1.365,-0.19 -2.047,-0.29 -0.147,-0.022 -0.277,0.069 -0.277,0.236 v 12.36 c 0,0.166 0.13,0.295 0.277,0.317 1.42,0.209 2.841,0.402 4.261,0.572 1.365,0.162 2.233,-0.53 2.233,-2.244 v -5.553 c 0,-0.977 -0.295,-1.652 -0.794,-2.019 -0.092,-0.066 -0.11,-0.215 -0.055,-0.358 0.308,-0.721 0.615,-1.446 0.923,-2.172 0.073,-0.158 0.017,-0.311 -0.185,-0.332 -0.683,-0.07 -1.365,-0.145 -2.048,-0.226 -0.147,-0.018 -0.277,0.04 -0.35,0.198 -0.265,0.632 -0.53,1.263 -0.793,1.893 -0.037,0.087 -0.112,0.133 -0.222,0.119 -0.116,-0.015 -0.233,-0.03 -0.35,-0.045"
             style="fill:#009dda;fill-opacity:1;fill-rule:nonzero;stroke:none"
             id="path4222"
             inkscape:connector-curvature="0" />
        </g>
        <g
           id="g4224"
           transform="translate(889.3008,757.458)">
          <path
             d="m 0,0 c -0.146,-0.008 -0.239,-0.124 -0.239,-0.253 v -2.509 c 0,-0.166 0.11,-0.27 0.295,-0.26 0.535,0.028 1.07,0.051 1.605,0.07 0.184,0.006 0.295,-0.102 0.276,-0.269 C 1.9,-3.78 1.863,-4.342 1.827,-4.902 1.809,-5.051 1.679,-5.165 1.514,-5.171 1.009,-5.189 0.505,-5.212 0,-5.239 -0.146,-5.247 -0.239,-5.363 -0.239,-5.492 v -2.73 c 0,-0.167 0.092,-0.272 0.239,-0.264 1.034,0.056 2.066,0.093 3.1,0.108 0.183,0.004 0.295,-0.106 0.277,-0.272 -0.037,-0.56 -0.074,-1.121 -0.111,-1.68 -0.019,-0.149 -0.148,-0.26 -0.314,-0.263 -1.838,-0.031 -3.678,-0.131 -5.515,-0.282 -0.185,-0.015 -0.277,0.088 -0.277,0.255 V 1.738 c 0,0.166 0.092,0.284 0.277,0.3 C -0.676,2.193 1.211,2.293 3.1,2.322 3.283,2.324 3.395,2.215 3.377,2.049 3.34,1.489 3.303,0.929 3.266,0.369 3.247,0.221 3.118,0.108 2.952,0.105 1.969,0.089 0.984,0.053 0,0"
             style="fill:#009dda;fill-opacity:1;fill-rule:nonzero;stroke:none"
             id="path4226"
             inkscape:connector-curvature="0" />
        </g>
        <g
           id="g4228"
           transform="translate(847.6201,732.2168)">
          <path
             d="m 0,0 c -1.476,-0.014 -2.387,0.994 -2.387,2.686 v 2.313 c 0,1.695 0.838,2.455 2.186,2.499 C 0.601,7.524 1.402,7.562 2.203,7.611 3.57,7.696 4.408,7.01 4.408,5.314 V 4.039 C 4.408,3.876 4.299,3.757 4.116,3.724 3.454,3.632 2.793,3.549 2.131,3.472 1.967,3.462 1.839,3.564 1.839,3.729 V 5.168 C 1.839,5.295 1.73,5.397 1.603,5.392 1.208,5.37 0.813,5.351 0.419,5.335 0.255,5.328 0.127,5.232 0.127,5.087 V 2.719 C 0.127,2.464 0.255,2.268 0.601,2.264 1.074,2.271 1.548,2.284 2.021,2.3 3.516,2.354 4.408,1.455 4.408,-0.241 V -2.519 C 4.408,-4.21 3.57,-5.054 2.222,-5.138 1.42,-5.187 0.619,-5.226 -0.183,-5.252 c -1.366,-0.044 -2.204,0.727 -2.204,2.419 v 1.275 c 0,0.163 0.128,0.274 0.292,0.293 0.662,0.041 1.324,0.091 1.985,0.15 0.182,0.007 0.292,-0.099 0.292,-0.263 v -1.438 c 0,-0.127 0.09,-0.234 0.237,-0.228 0.4,0.016 0.802,0.035 1.202,0.057 0.146,0.008 0.273,0.106 0.273,0.234 v 2.35 c 0,0.255 -0.109,0.43 -0.474,0.429 C 0.947,0.013 0.474,0.005 0,0"
             style="fill:#009dda;fill-opacity:1;fill-rule:nonzero;stroke:none"
             id="path4230"
             inkscape:connector-curvature="0" />
        </g>
        <g
           id="g4232"
           transform="translate(856.3994,738.2627)">
          <path
             d="m 0,0 c -0.146,-0.018 -0.237,-0.138 -0.237,-0.266 v -2.477 c 0,-0.163 0.109,-0.26 0.292,-0.237 0.527,0.064 1.055,0.133 1.584,0.205 0.182,0.024 0.292,-0.071 0.273,-0.238 C 1.876,-3.569 1.839,-4.127 1.803,-4.685 1.784,-4.833 1.657,-4.959 1.493,-4.981 0.995,-5.048 0.497,-5.112 0,-5.173 -0.146,-5.191 -0.237,-5.312 -0.237,-5.438 v -2.697 c 0,-0.163 0.091,-0.262 0.237,-0.244 1.02,0.125 2.04,0.264 3.06,0.409 0.182,0.026 0.292,-0.067 0.273,-0.234 -0.037,-0.558 -0.072,-1.115 -0.109,-1.673 -0.019,-0.148 -0.146,-0.277 -0.31,-0.3 -1.816,-0.259 -3.631,-0.488 -5.446,-0.674 -0.182,-0.018 -0.274,0.081 -0.274,0.247 V 1.599 c 0,0.164 0.092,0.282 0.274,0.3 C -0.668,2.09 1.196,2.328 3.06,2.595 3.242,2.621 3.352,2.527 3.333,2.361 3.296,1.803 3.261,1.245 3.224,0.687 3.205,0.539 3.078,0.411 2.914,0.388 1.942,0.25 0.971,0.119 0,0"
             style="fill:#009dda;fill-opacity:1;fill-rule:nonzero;stroke:none"
             id="path4234"
             inkscape:connector-curvature="0" />
        </g>
        <g
           id="g4236"
           transform="translate(865.1055,734.0889)">
          <path
             d="M 0,0 V 5.228 C 0,5.355 -0.109,5.446 -0.255,5.422 -0.613,5.363 -0.972,5.304 -1.33,5.246 -1.476,5.223 -1.566,5.099 -1.566,4.971 v -5.228 c 0,-0.164 0.109,-0.256 0.291,-0.226 0.34,0.055 0.68,0.112 1.02,0.168 C -0.091,-0.27 0,-0.164 0,0 m -3.861,-5.718 c -0.182,-0.028 -0.274,0.068 -0.274,0.232 V 4.532 c 0,1.695 0.838,2.584 2.186,2.8 0.771,0.123 1.543,0.25 2.313,0.379 C 1.712,7.936 2.568,7.318 2.568,5.624 V -4.395 C 2.568,-4.559 2.441,-4.689 2.276,-4.717 1.615,-4.83 0.953,-4.941 0.291,-5.052 0.109,-5.083 0,-4.991 0,-4.827 v 2.095 c 0,0.164 -0.109,0.254 -0.291,0.224 -0.347,-0.056 -0.692,-0.114 -1.039,-0.17 -0.146,-0.023 -0.236,-0.147 -0.236,-0.275 v -2.131 c 0,-0.164 -0.11,-0.291 -0.274,-0.317 -0.674,-0.109 -1.348,-0.214 -2.021,-0.317"
             style="fill:#009dda;fill-opacity:1;fill-rule:nonzero;stroke:none"
             id="path4238"
             inkscape:connector-curvature="0" />
        </g>
        <g
           id="g4240"
           transform="translate(873.5566,740.7109)">
          <path
             d="m 0,0 c 0,0.164 -0.109,0.254 -0.291,0.225 -0.34,-0.057 -0.68,-0.114 -1.02,-0.171 -0.146,-0.025 -0.237,-0.15 -0.237,-0.277 v -5.519 c 0,-0.164 0.109,-0.255 0.291,-0.225 0.34,0.058 0.681,0.114 1.021,0.171 C -0.091,-5.771 0,-5.647 0,-5.483 Z m -1.257,-8.152 c -0.163,-0.027 -0.291,-0.14 -0.291,-0.286 v -1.839 c 0,-0.164 -0.091,-0.289 -0.272,-0.32 -0.675,-0.114 -1.349,-0.229 -2.024,-0.344 -0.144,-0.026 -0.272,0.062 -0.272,0.226 V 1.489 c 0,0.163 0.128,0.295 0.272,0.32 1.404,0.24 2.806,0.479 4.208,0.71 C 1.712,2.74 2.568,2.108 2.568,0.415 V -5.068 C 2.568,-6.033 2.277,-6.716 1.785,-7.104 1.694,-7.174 1.676,-7.322 1.73,-7.459 2.034,-8.158 2.338,-8.856 2.642,-9.556 2.715,-9.708 2.66,-9.863 2.459,-9.894 1.785,-10 1.111,-10.109 0.437,-10.22 c -0.145,-0.024 -0.273,0.028 -0.345,0.18 -0.262,0.612 -0.523,1.225 -0.783,1.837 -0.038,0.085 -0.11,0.128 -0.22,0.109 -0.115,-0.019 -0.231,-0.038 -0.346,-0.058"
             style="fill:#009dda;fill-opacity:1;fill-rule:nonzero;stroke:none"
             id="path4242"
             inkscape:connector-curvature="0" />
        </g>
        <g
           id="g4244"
           transform="translate(879.8594,731.3877)">
          <path
             d="m 0,0 c -1.349,-0.186 -2.187,0.449 -2.187,2.144 v 7.833 c 0,1.693 0.838,2.587 2.187,2.774 0.771,0.106 1.542,0.208 2.313,0.302 1.347,0.164 2.204,-0.515 2.204,-2.208 V 9.496 C 4.517,9.333 4.39,9.21 4.226,9.193 3.563,9.098 2.902,8.997 2.24,8.892 2.058,8.868 1.949,8.965 1.949,9.128 v 1.458 c 0,0.145 -0.129,0.221 -0.292,0.199 C 1.311,10.741 0.965,10.696 0.619,10.65 0.474,10.631 0.383,10.509 0.383,10.381 V 2.512 c 0,-0.164 0.108,-0.258 0.291,-0.234 0.34,0.046 0.68,0.09 1.019,0.133 0.146,0.019 0.256,0.142 0.256,0.269 v 1.347 c 0,0.165 0.109,0.288 0.291,0.311 C 2.902,4.443 3.563,4.544 4.226,4.639 4.39,4.656 4.517,4.561 4.517,4.396 V 3.012 C 4.517,1.317 3.66,0.467 2.313,0.303 1.542,0.209 0.771,0.107 0,0"
             style="fill:#009dda;fill-opacity:1;fill-rule:nonzero;stroke:none"
             id="path4246"
             inkscape:connector-curvature="0" />
        </g>
        <g
           id="g4248"
           transform="translate(888.8379,737.7021)">
          <path
             d="m 0,0 c -0.163,-0.01 -0.291,-0.127 -0.291,-0.272 v -4.865 c 0,-0.164 -0.091,-0.279 -0.273,-0.29 -0.674,-0.045 -1.347,-0.096 -2.022,-0.155 -0.145,-0.013 -0.273,0.086 -0.273,0.249 V 6.872 c 0,0.163 0.128,0.284 0.273,0.297 0.675,0.059 1.348,0.11 2.022,0.154 0.182,0.013 0.273,-0.092 0.273,-0.255 V 2.44 c 0,-0.163 0.109,-0.264 0.291,-0.253 0.419,0.024 0.839,0.045 1.258,0.064 0.145,0.007 0.255,0.12 0.255,0.284 v 4.627 c 0,0.164 0.109,0.277 0.255,0.283 0.679,0.026 1.36,0.043 2.04,0.051 C 3.972,7.498 4.062,7.39 4.062,7.227 V -4.979 c 0,-0.164 -0.091,-0.274 -0.254,-0.275 -0.68,-0.008 -1.361,-0.025 -2.04,-0.052 -0.146,-0.005 -0.255,0.1 -0.255,0.264 v 4.845 c 0,0.164 -0.128,0.268 -0.291,0.26 C 0.814,0.045 0.407,0.023 0,0"
             style="fill:#009dda;fill-opacity:1;fill-rule:nonzero;stroke:none"
             id="path4250"
             inkscape:connector-curvature="0" />
        </g>
      </g>
    </g>
  </g>
</svg>
